<svg aria-hidden="true" style="position: absolute; width: 0; height: 0; overflow: hidden;" version="1.1" xmlns="http://www.w3.org/2000/svg" xmlns:xlink="http://www.w3.org/1999/xlink">
<defs>
<symbol id="icon-profile-male" viewBox="0 0 36 32">
<path d="M0.5 31.983c0.268 0.067 0.542-0.088 0.612-0.354 1.030-3.843 5.216-4.839 7.718-5.435 0.627-0.149 1.122-0.267 1.444-0.406 2.85-1.237 3.779-3.227 4.057-4.679 0.034-0.175-0.029-0.355-0.165-0.473-1.484-1.281-2.736-3.204-3.526-5.416-0.022-0.063-0.057-0.121-0.103-0.171-1.045-1.136-1.645-2.337-1.645-3.294 0-0.559 0.211-0.934 0.686-1.217 0.145-0.087 0.236-0.24 0.243-0.408 0.221-5.094 3.849-9.104 8.299-9.13 0.005 0 0.102 0.007 0.107 0.007 4.472 0.062 8.077 4.158 8.206 9.324 0.004 0.143 0.068 0.277 0.178 0.369 0.313 0.265 0.459 0.601 0.459 1.057 0 0.801-0.427 1.786-1.201 2.772-0.037 0.047-0.065 0.101-0.084 0.158-0.8 2.536-2.236 4.775-3.938 6.145-0.144 0.116-0.212 0.302-0.178 0.483 0.278 1.451 1.207 3.44 4.057 4.679 0.337 0.146 0.86 0.26 1.523 0.403 2.477 0.536 6.622 1.435 7.639 5.232 0.060 0.223 0.262 0.37 0.482 0.37 0.043 0 0.086-0.006 0.13-0.017 0.267-0.072 0.425-0.346 0.354-0.613-1.175-4.387-5.871-5.404-8.393-5.95-0.585-0.127-1.090-0.236-1.336-0.344-1.86-0.808-3.006-2.039-3.411-3.665 1.727-1.483 3.172-3.771 3.998-6.337 0.877-1.14 1.359-2.314 1.359-3.317 0-0.669-0.216-1.227-0.644-1.663-0.238-5.604-4.237-10.017-9.2-10.088l-0.149-0.002c-4.873 0.026-8.889 4.323-9.24 9.83-0.626 0.46-0.944 1.105-0.944 1.924 0 1.183 0.669 2.598 1.84 3.896 0.809 2.223 2.063 4.176 3.556 5.543-0.403 1.632-1.55 2.867-3.414 3.676-0.241 0.105-0.721 0.22-1.277 0.352-2.541 0.604-7.269 1.729-8.453 6.147-0.071 0.267 0.087 0.54 0.354 0.612z"></path>
</symbol>
<symbol id="icon-truck" viewBox="0 0 32 32">
<path d="M24.832 11.445c-0.186-0.278-0.498-0.445-0.832-0.445h-1c-0.553 0-1 0.447-1 1v6c0 0.553 0.447 1 1 1h4c0.553 0 1-0.447 1-1v-1.5c0-0.197-0.059-0.391-0.168-0.555l-3-4.5zM27 18h-4v-6h1l3 4.5v1.5zM31.496 15.336l-4-6c-0.558-0.837-1.492-1.336-2.496-1.336h-4v-2c0-1.654-1.346-3-3-3h-15c-1.654 0-3 1.346-3 3v11c0 1.654 1.346 3 3 3v0 3c0 1.654 1.346 3 3 3h1.142c0.447 1.721 2 3 3.859 3 1.857 0 3.41-1.279 3.857-3h5.282c0.447 1.721 2 3 3.859 3 1.857 0 3.41-1.279 3.857-3h1.144c1.654 0 3-1.346 3-3v-6c0-0.594-0.174-1.17-0.504-1.664zM3 18c-0.552 0-1-0.447-1-1v-11c0-0.553 0.448-1 1-1h15c0.553 0 1 0.447 1 1v11c0 0.553-0.447 1-1 1h-15zM11.001 27c-1.105 0-2-0.896-2-2s0.895-2 2-2c1.104 0 2 0.896 2 2s-0.897 2-2 2zM24 27c-1.105 0-2-0.896-2-2s0.895-2 2-2c1.104 0 2 0.896 2 2s-0.896 2-2 2zM30 23c0 0.553-0.447 1-1 1h-1.143c-0.447-1.721-2-3-3.857-3-1.859 0-3.412 1.279-3.859 3h-5.282c-0.447-1.721-2-3-3.857-3-1.859 0-3.412 1.279-3.859 3h-1.143c-0.552 0-1-0.447-1-1v-3h13c1.654 0 3-1.346 3-3v-7h4c0.334 0 0.646 0.167 0.832 0.445l4 6c0.109 0.164 0.168 0.358 0.168 0.555v6z"></path>
</symbol>
<symbol id="icon-banknote" viewBox="0 0 32 32">
<path d="M31.415 10.586l-10-10c-0.496-0.496-1.215-0.695-1.896-0.527-0.359 0.088-0.68 0.273-0.934 0.527-0.227 0.227-0.398 0.508-0.496 0.822-0.453 1.469-1.236 2.746-2.395 3.904-1.548 1.547-3.564 2.719-5.697 3.958-2.264 1.312-4.603 2.672-6.52 4.588-1.629 1.631-2.738 3.445-3.388 5.551-0.219 0.711-0.028 1.48 0.496 2.006l10 10c0.496 0.496 1.215 0.695 1.896 0.527 0.359-0.090 0.68-0.273 0.934-0.527 0.227-0.227 0.398-0.508 0.496-0.824 0.454-1.469 1.237-2.746 2.397-3.904 1.547-1.547 3.562-2.717 5.697-3.955 2.262-1.314 4.602-2.674 6.518-4.59 1.629-1.629 2.738-3.445 3.389-5.551 0.218-0.71 0.026-1.482-0.497-2.005zM12 30c-3.312-3.312-6.688-6.689-10-10 2.842-9.201 15.16-8.799 18-18 3.312 3.311 6.689 6.688 10.002 10-2.843 9.199-15.161 8.799-18.002 18zM19.562 14.9c-0.326-0.273-0.654-0.459-0.984-0.551-0.328-0.092-0.656-0.129-0.988-0.105-0.328 0.025-0.664 0.1-1 0.229-0.336 0.131-0.674 0.273-1.014 0.438-0.537-0.617-1.074-1.227-1.611-1.793 0.242-0.219 0.477-0.33 0.703-0.338 0.227-0.010 0.445 0.014 0.652 0.066 0.211 0.053 0.404 0.098 0.582 0.133 0.18 0.035 0.336-0.004 0.473-0.119 0.145-0.125 0.225-0.287 0.236-0.482 0.010-0.197-0.064-0.389-0.229-0.576-0.211-0.242-0.465-0.389-0.77-0.443-0.301-0.053-0.609-0.049-0.93 0.021-0.316 0.072-0.617 0.191-0.902 0.359s-0.514 0.34-0.684 0.508c-0.065-0.062-0.13-0.123-0.195-0.184-0.072-0.066-0.162-0.102-0.27-0.1-0.109 0-0.199 0.047-0.273 0.133-0.072 0.084-0.105 0.182-0.092 0.285 0.010 0.107 0.053 0.189 0.127 0.252 0.065 0.055 0.13 0.109 0.195 0.166-0.256 0.309-0.467 0.65-0.633 1.010-0.168 0.361-0.268 0.719-0.305 1.066-0.039 0.35-0.002 0.67 0.105 0.967 0.107 0.299 0.305 0.553 0.594 0.793 0.471 0.391 1.025 0.557 1.668 0.52 0.641-0.039 1.332-0.23 2.075-0.629 0.59 0.682 1.182 1.359 1.773 1.988-0.25 0.211-0.469 0.332-0.662 0.371-0.193 0.041-0.365 0.037-0.521-0.010-0.156-0.049-0.301-0.119-0.434-0.209-0.133-0.092-0.264-0.17-0.395-0.234-0.129-0.064-0.262-0.1-0.398-0.102s-0.281 0.064-0.441 0.201c-0.164 0.143-0.246 0.309-0.246 0.496s0.086 0.375 0.254 0.566c0.17 0.191 0.391 0.352 0.658 0.479s0.569 0.207 0.901 0.229c0.332 0.023 0.682-0.027 1.051-0.164 0.371-0.135 0.738-0.379 1.1-0.742 0.174 0.17 0.35 0.332 0.525 0.488 0.074 0.064 0.164 0.096 0.273 0.088 0.105-0.004 0.197-0.053 0.27-0.141 0.074-0.090 0.105-0.189 0.094-0.293-0.010-0.105-0.053-0.186-0.125-0.244-0.176-0.141-0.352-0.289-0.527-0.445 0.299-0.367 0.539-0.754 0.717-1.137 0.178-0.385 0.283-0.756 0.318-1.1 0.035-0.346-0.006-0.658-0.119-0.941-0.112-0.287-0.311-0.533-0.596-0.77zM13.971 15.578c-0.283 0.012-0.53-0.082-0.746-0.291-0.092-0.088-0.156-0.195-0.195-0.322-0.041-0.127-0.055-0.266-0.039-0.418 0.014-0.15 0.059-0.307 0.137-0.465 0.074-0.158 0.184-0.316 0.324-0.469 0.507 0.504 1.013 1.057 1.52 1.629-0.384 0.211-0.718 0.324-1.001 0.336zM18.688 17.58c-0.090 0.166-0.193 0.314-0.314 0.443-0.561-0.566-1.121-1.188-1.68-1.826 0.143-0.064 0.293-0.131 0.455-0.199s0.324-0.113 0.486-0.141c0.166-0.025 0.33-0.018 0.494 0.021 0.162 0.041 0.316 0.129 0.459 0.268 0.141 0.141 0.23 0.287 0.266 0.445 0.039 0.16 0.041 0.322 0.014 0.488-0.029 0.167-0.088 0.333-0.18 0.501zM14.717 22.18c0.197-0.159 0.487-0.151 0.668 0.033 0.196 0.195 0.196 0.514 0 0.709-0.016 0.016-0.033 0.027-0.051 0.041l0.002 0.002c-0.633 0.481-1.153 0.914-1.714 1.475-0.507 0.506-0.965 1.039-1.361 1.58l-0.639 0.875c-0.020 0.036-0.044 0.069-0.074 0.1-0.196 0.195-0.515 0.195-0.71 0-0.17-0.17-0.191-0.432-0.066-0.627l-0.002-0.002 0.684-0.934c0.427-0.584 0.918-1.156 1.461-1.699 0.565-0.567 1.175-1.073 1.8-1.553h0.002zM18.378 7.715c0.506-0.506 0.963-1.037 1.36-1.581l0.664-0.91c0.024-0.043 0.051-0.086 0.088-0.123 0.197-0.197 0.516-0.197 0.713 0 0.187 0.188 0.195 0.485 0.025 0.684l0.002 0.002-0.684 0.938c-0.428 0.584-0.918 1.154-1.461 1.697-0.565 0.565-1.174 1.073-1.799 1.553l-0.004-0.002c-0.199 0.183-0.508 0.179-0.699-0.014-0.197-0.197-0.197-0.518 0-0.715 0.035-0.037 0.076-0.063 0.117-0.086 0.588-0.449 1.155-0.92 1.678-1.443z"></path>
</symbol>
<symbol id="icon-input-checked" viewBox="0 0 24 24">
<path d="M16 19h-8c-1.654 0-3-1.346-3-3v-8c0-1.654 1.346-3 3-3h5c0.553 0 1 0.448 1 1s-0.447 1-1 1h-5c-0.552 0-1 0.449-1 1v8c0 0.551 0.448 1 1 1h8c0.552 0 1-0.449 1-1v-3c0-0.552 0.447-1 1-1s1 0.448 1 1v3c0 1.654-1.346 3-3 3z"></path>
<path d="M13.166 14.833c-0.35 0-0.689-0.139-0.941-0.391l-2.668-2.667c-0.52-0.521-0.52-1.365 0-1.885s1.365-0.521 1.887 0l1.416 1.417 3.475-5.455c0.357-0.644 1.17-0.877 1.814-0.519s0.875 1.17 0.518 1.813l-4.334 7c-0.203 0.366-0.566 0.615-0.98 0.673-0.064 0.010-0.124 0.014-0.187 0.014z"></path>
</symbol>
<symbol id="icon-th-list-outline" viewBox="0 0 24 24">
<path d="M19 18c0.55 0 1 0.45 1 1s-0.45 1-1 1h-7c-0.55 0-1-0.45-1-1s0.45-1 1-1h7M19 16h-7c-1.654 0-3 1.346-3 3s1.346 3 3 3h7c1.654 0 3-1.346 3-3s-1.346-3-3-3z"></path>
<path d="M19 11c0.55 0 1 0.45 1 1s-0.45 1-1 1h-7c-0.55 0-1-0.45-1-1s0.45-1 1-1h7M19 9h-7c-1.654 0-3 1.346-3 3s1.346 3 3 3h7c1.654 0 3-1.346 3-3s-1.346-3-3-3z"></path>
<path d="M19 4c0.55 0 1 0.45 1 1s-0.45 1-1 1h-7c-0.55 0-1-0.45-1-1s0.45-1 1-1h7M19 2h-7c-1.654 0-3 1.346-3 3s1.346 3 3 3h7c1.654 0 3-1.346 3-3s-1.346-3-3-3z"></path>
<path d="M6 16h-2c-1.104 0-2 0.896-2 2v2c0 1.104 0.896 2 2 2h2c1.104 0 2-0.896 2-2v-2c0-1.104-0.896-2-2-2zM6 20h-2v-2h2v2z"></path>
<path d="M6 9h-2c-1.104 0-2 0.896-2 2v2c0 1.104 0.896 2 2 2h2c1.104 0 2-0.896 2-2v-2c0-1.104-0.896-2-2-2zM6 13h-2v-2h2v2z"></path>
<path d="M6 2h-2c-1.104 0-2 0.896-2 2v2c0 1.104 0.896 2 2 2h2c1.104 0 2-0.896 2-2v-2c0-1.104-0.896-2-2-2zM6 6h-2v-2h2v2z"></path>
</symbol>
<symbol id="icon-message" viewBox="0 0 24 24">
<path d="M18 7c0.542 0 1 0.458 1 1v7c0 0.542-0.458 1-1 1h-8.829l-0.171 0.171v-0.171h-3c-0.542 0-1-0.458-1-1v-7c0-0.542 0.458-1 1-1h12M18 5h-12c-1.65 0-3 1.35-3 3v7c0 1.65 1.35 3 3 3h1v3l3-3h8c1.65 0 3-1.35 3-3v-7c0-1.65-1.35-3-3-3z"></path>
</symbol>
<symbol id="icon-user" viewBox="0 0 24 24">
<path d="M21 21v-2c0-1.38-0.561-2.632-1.464-3.536s-2.156-1.464-3.536-1.464h-8c-1.38 0-2.632 0.561-3.536 1.464s-1.464 2.156-1.464 3.536v2c0 0.552 0.448 1 1 1s1-0.448 1-1v-2c0-0.829 0.335-1.577 0.879-2.121s1.292-0.879 2.121-0.879h8c0.829 0 1.577 0.335 2.121 0.879s0.879 1.292 0.879 2.121v2c0 0.552 0.448 1 1 1s1-0.448 1-1zM17 7c0-1.38-0.561-2.632-1.464-3.536s-2.156-1.464-3.536-1.464-2.632 0.561-3.536 1.464-1.464 2.156-1.464 3.536 0.561 2.632 1.464 3.536 2.156 1.464 3.536 1.464 2.632-0.561 3.536-1.464 1.464-2.156 1.464-3.536zM15 7c0 0.829-0.335 1.577-0.879 2.121s-1.292 0.879-2.121 0.879-1.577-0.335-2.121-0.879-0.879-1.292-0.879-2.121 0.335-1.577 0.879-2.121 1.292-0.879 2.121-0.879 1.577 0.335 2.121 0.879 0.879 1.292 0.879 2.121z"></path>
</symbol>
<symbol id="icon-settings" viewBox="0 0 24 24">
<path d="M16 12c0-1.104-0.449-2.106-1.172-2.828s-1.724-1.172-2.828-1.172-2.106 0.449-2.828 1.172-1.172 1.724-1.172 2.828 0.449 2.106 1.172 2.828 1.724 1.172 2.828 1.172 2.106-0.449 2.828-1.172 1.172-1.724 1.172-2.828zM14 12c0 0.553-0.223 1.051-0.586 1.414s-0.861 0.586-1.414 0.586-1.051-0.223-1.414-0.586-0.586-0.861-0.586-1.414 0.223-1.051 0.586-1.414 0.861-0.586 1.414-0.586 1.051 0.223 1.414 0.586 0.586 0.861 0.586 1.414zM20.315 15.404c0.046-0.105 0.112-0.191 0.192-0.257 0.112-0.092 0.251-0.146 0.403-0.147h0.090c0.828 0 1.58-0.337 2.121-0.879s0.879-1.293 0.879-2.121-0.337-1.58-0.879-2.121-1.293-0.879-2.121-0.879h-0.159c-0.11-0.001-0.215-0.028-0.308-0.076-0.127-0.066-0.23-0.172-0.292-0.312-0.003-0.029-0.004-0.059-0.004-0.089-0.024-0.055-0.040-0.111-0.049-0.168 0.020-0.334 0.077-0.454 0.168-0.547l0.062-0.062c0.585-0.586 0.878-1.356 0.877-2.122s-0.294-1.536-0.881-2.122c-0.586-0.585-1.356-0.878-2.122-0.877s-1.536 0.294-2.12 0.879l-0.046 0.046c-0.083 0.080-0.183 0.136-0.288 0.166-0.14 0.039-0.291 0.032-0.438-0.033-0.101-0.044-0.187-0.11-0.253-0.19-0.092-0.112-0.146-0.251-0.147-0.403v-0.090c0-0.828-0.337-1.58-0.879-2.121s-1.293-0.879-2.121-0.879-1.58 0.337-2.121 0.879-0.879 1.293-0.879 2.121v0.159c-0.001 0.11-0.028 0.215-0.076 0.308-0.066 0.127-0.172 0.23-0.312 0.292-0.029 0.003-0.059 0.004-0.089 0.004-0.055 0.024-0.111 0.040-0.168 0.049-0.335-0.021-0.455-0.078-0.548-0.169l-0.062-0.062c-0.586-0.585-1.355-0.878-2.122-0.878s-1.535 0.294-2.122 0.882c-0.585 0.586-0.878 1.355-0.878 2.122s0.294 1.536 0.879 2.12l0.048 0.047c0.080 0.083 0.136 0.183 0.166 0.288 0.039 0.14 0.032 0.291-0.031 0.434-0.006 0.016-0.013 0.034-0.021 0.052-0.041 0.109-0.108 0.203-0.191 0.275-0.11 0.095-0.25 0.153-0.383 0.156h-0.090c-0.828 0-1.58 0.337-2.121 0.879s-0.879 1.294-0.879 2.122 0.337 1.58 0.879 2.121 1.293 0.879 2.121 0.879h0.159c0.11 0.001 0.215 0.028 0.308 0.076 0.128 0.067 0.233 0.174 0.296 0.321 0.024 0.055 0.040 0.111 0.049 0.168-0.020 0.334-0.077 0.454-0.168 0.547l-0.062 0.062c-0.585 0.586-0.878 1.356-0.877 2.122s0.294 1.536 0.881 2.122c0.586 0.585 1.356 0.878 2.122 0.877s1.536-0.294 2.12-0.879l0.047-0.048c0.083-0.080 0.183-0.136 0.288-0.166 0.14-0.039 0.291-0.032 0.434 0.031 0.016 0.006 0.034 0.013 0.052 0.021 0.109 0.041 0.203 0.108 0.275 0.191 0.095 0.11 0.153 0.25 0.156 0.383v0.092c0 0.828 0.337 1.58 0.879 2.121s1.293 0.879 2.121 0.879 1.58-0.337 2.121-0.879 0.879-1.293 0.879-2.121v-0.159c0.001-0.11 0.028-0.215 0.076-0.308 0.067-0.128 0.174-0.233 0.321-0.296 0.055-0.024 0.111-0.040 0.168-0.049 0.334 0.020 0.454 0.077 0.547 0.168l0.062 0.062c0.586 0.585 1.356 0.878 2.122 0.877s1.536-0.294 2.122-0.881c0.585-0.586 0.878-1.356 0.877-2.122s-0.294-1.536-0.879-2.12l-0.048-0.047c-0.080-0.083-0.136-0.183-0.166-0.288-0.039-0.14-0.032-0.291 0.031-0.434zM18.396 9.302c-0.012-0.201-0.038-0.297-0.076-0.382v0.080c0 0.043 0.003 0.084 0.008 0.125 0.021 0.060 0.043 0.119 0.068 0.177 0.004 0.090 0.005 0.091 0.005 0.092 0.249 0.581 0.684 1.030 1.208 1.303 0.371 0.193 0.785 0.298 1.211 0.303h0.18c0.276 0 0.525 0.111 0.707 0.293s0.293 0.431 0.293 0.707-0.111 0.525-0.293 0.707-0.431 0.293-0.707 0.293h-0.090c-0.637 0.003-1.22 0.228-1.675 0.603-0.323 0.266-0.581 0.607-0.75 0.993-0.257 0.582-0.288 1.21-0.127 1.782 0.119 0.423 0.341 0.814 0.652 1.136l0.072 0.073c0.196 0.196 0.294 0.45 0.294 0.707s-0.097 0.512-0.292 0.707c-0.197 0.197-0.451 0.295-0.709 0.295s-0.512-0.097-0.707-0.292l-0.061-0.061c-0.463-0.453-1.040-0.702-1.632-0.752-0.437-0.037-0.882 0.034-1.293 0.212-0.578 0.248-1.027 0.683-1.3 1.206-0.193 0.371-0.298 0.785-0.303 1.211v0.181c0 0.276-0.111 0.525-0.293 0.707s-0.43 0.292-0.706 0.292-0.525-0.111-0.707-0.293-0.293-0.431-0.293-0.707v-0.090c-0.015-0.66-0.255-1.242-0.644-1.692-0.284-0.328-0.646-0.585-1.058-0.744-0.575-0.247-1.193-0.274-1.756-0.116-0.423 0.119-0.814 0.341-1.136 0.652l-0.073 0.072c-0.196 0.196-0.45 0.294-0.707 0.294s-0.512-0.097-0.707-0.292c-0.197-0.197-0.295-0.451-0.295-0.709s0.097-0.512 0.292-0.707l0.061-0.061c0.453-0.463 0.702-1.040 0.752-1.632 0.037-0.437-0.034-0.882-0.212-1.293-0.248-0.578-0.683-1.027-1.206-1.3-0.371-0.193-0.785-0.298-1.211-0.303l-0.18 0.001c-0.276 0-0.525-0.111-0.707-0.293s-0.293-0.431-0.293-0.707 0.111-0.525 0.293-0.707 0.431-0.293 0.707-0.293h0.090c0.66-0.015 1.242-0.255 1.692-0.644 0.328-0.284 0.585-0.646 0.744-1.058 0.247-0.575 0.274-1.193 0.116-1.756-0.119-0.423-0.341-0.814-0.652-1.136l-0.073-0.073c-0.196-0.196-0.294-0.45-0.294-0.707s0.097-0.512 0.292-0.707c0.197-0.197 0.451-0.295 0.709-0.295s0.512 0.097 0.707 0.292l0.061 0.061c0.463 0.453 1.040 0.702 1.632 0.752 0.37 0.032 0.745-0.014 1.101-0.137 0.096-0.012 0.186-0.036 0.266-0.072-0.031 0.001-0.061 0.003-0.089 0.004-0.201 0.012-0.297 0.038-0.382 0.076h0.080c0.043 0 0.084-0.003 0.125-0.008 0.060-0.021 0.119-0.043 0.177-0.068 0.090-0.004 0.091-0.005 0.092-0.005 0.581-0.249 1.030-0.684 1.303-1.208 0.193-0.37 0.298-0.785 0.303-1.21v-0.181c0-0.276 0.111-0.525 0.293-0.707s0.431-0.293 0.707-0.293 0.525 0.111 0.707 0.293 0.293 0.431 0.293 0.707v0.090c0.003 0.637 0.228 1.22 0.603 1.675 0.266 0.323 0.607 0.581 0.996 0.751 0.578 0.255 1.206 0.286 1.778 0.125 0.423-0.119 0.814-0.341 1.136-0.652l0.073-0.072c0.196-0.196 0.45-0.294 0.707-0.294s0.512 0.097 0.707 0.292c0.197 0.197 0.295 0.451 0.295 0.709s-0.097 0.512-0.292 0.707l-0.061 0.061c-0.453 0.463-0.702 1.040-0.752 1.632-0.032 0.37 0.014 0.745 0.137 1.101 0.012 0.095 0.037 0.185 0.072 0.266-0.001-0.032-0.002-0.062-0.004-0.089z"></path>
</symbol>
<symbol id="icon-chevron-small-down" viewBox="0 0 20 20">
<path d="M13.418 7.859c0.271-0.268 0.709-0.268 0.978 0s0.272 0.701 0 0.969l-3.908 3.83c-0.27 0.268-0.707 0.268-0.979 0l-3.908-3.83c-0.27-0.267-0.27-0.701 0-0.969s0.709-0.268 0.978 0l3.421 3.141 3.418-3.141z"></path>
</symbol>
<symbol id="icon-grid" viewBox="0 0 20 20">
<path d="M8 4h-3c-0.553 0-1 0.447-1 1v3c0 0.552 0.447 1 1 1h3c0.553 0 1-0.448 1-1v-3c0-0.552-0.447-1-1-1zM15 4h-3c-0.553 0-1 0.447-1 1v3c0 0.552 0.447 1 1 1h3c0.553 0 1-0.448 1-1v-3c0-0.552-0.447-1-1-1zM8 11h-3c-0.553 0-1 0.447-1 1v3c0 0.552 0.447 1 1 1h3c0.553 0 1-0.448 1-1v-3c0-0.552-0.447-1-1-1zM15 11h-3c-0.553 0-1 0.447-1 1v3c0 0.552 0.447 1 1 1h3c0.553 0 1-0.448 1-1v-3c0-0.552-0.447-1-1-1z"></path>
</symbol>
<symbol id="icon-notification" viewBox="0 0 20 20">
<path d="M15 8.38v8.62h-12v-12h8.62c-0.073-0.322-0.12-0.655-0.12-1s0.047-0.678 0.12-1h-8.62c-1.102 0-2 0.9-2 2v12c0 1.1 0.9 2 2 2h12c1.1 0 2-0.9 2-2v-8.62c-0.322 0.073-0.655 0.12-1 0.12s-0.678-0.047-1-0.12zM16 1c-1.657 0-3 1.343-3 3s1.343 3 3 3 3-1.343 3-3-1.343-3-3-3z"></path>
</symbol>
<symbol id="icon-sweden" viewBox="0 0 20 20">
<path d="M18 4h-9v5h10v-4c0-0.553-0.447-1-1-1zM1 15c0 0.553 0.248 1 0.8 1h5.2v-5h-6v4zM9 16h9c0.553 0 1-0.447 1-1v-4h-10v5zM1 5v4h6v-5h-5.2c-0.552 0-0.8 0.447-0.8 1z"></path>
</symbol>
<symbol id="icon-file-text" viewBox="0 0 32 32">
<path d="M27 0h-24c-1.65 0-3 1.35-3 3v26c0 1.65 1.35 3 3 3h24c1.65 0 3-1.35 3-3v-26c0-1.65-1.35-3-3-3zM26 28h-22v-24h22v24zM8 14h14v2h-14zM8 18h14v2h-14zM8 22h14v2h-14zM8 10h14v2h-14z"></path>
</symbol>
<symbol id="icon-spinner6" viewBox="0 0 32 32">
<path d="M12 4c0-2.209 1.791-4 4-4s4 1.791 4 4c0 2.209-1.791 4-4 4s-4-1.791-4-4zM24.719 16c0 0 0 0 0 0 0-1.812 1.469-3.281 3.281-3.281s3.281 1.469 3.281 3.281c0 0 0 0 0 0 0 1.812-1.469 3.281-3.281 3.281s-3.281-1.469-3.281-3.281zM21.513 24.485c0-1.641 1.331-2.972 2.972-2.972s2.972 1.331 2.972 2.972c0 1.641-1.331 2.972-2.972 2.972s-2.972-1.331-2.972-2.972zM13.308 28c0-1.487 1.205-2.692 2.692-2.692s2.692 1.205 2.692 2.692c0 1.487-1.205 2.692-2.692 2.692s-2.692-1.205-2.692-2.692zM5.077 24.485c0-1.346 1.092-2.438 2.438-2.438s2.438 1.092 2.438 2.438c0 1.346-1.092 2.438-2.438 2.438s-2.438-1.092-2.438-2.438zM1.792 16c0-1.22 0.989-2.208 2.208-2.208s2.208 0.989 2.208 2.208c0 1.22-0.989 2.208-2.208 2.208s-2.208-0.989-2.208-2.208zM5.515 7.515c0 0 0 0 0 0 0-1.105 0.895-2 2-2s2 0.895 2 2c0 0 0 0 0 0 0 1.105-0.895 2-2 2s-2-0.895-2-2zM28.108 7.515c0 2.001-1.622 3.623-3.623 3.623s-3.623-1.622-3.623-3.623c0-2.001 1.622-3.623 3.623-3.623s3.623 1.622 3.623 3.623z"></path>
</symbol>
<symbol id="icon-cog" viewBox="0 0 32 32">
<path d="M29.181 19.070c-1.679-2.908-0.669-6.634 2.255-8.328l-3.145-5.447c-0.898 0.527-1.943 0.829-3.058 0.829-3.361 0-6.085-2.742-6.085-6.125h-6.289c0.008 1.044-0.252 2.103-0.811 3.070-1.679 2.908-5.411 3.897-8.339 2.211l-3.144 5.447c0.905 0.515 1.689 1.268 2.246 2.234 1.676 2.903 0.672 6.623-2.241 8.319l3.145 5.447c0.895-0.522 1.935-0.82 3.044-0.82 3.35 0 6.067 2.725 6.084 6.092h6.289c-0.003-1.034 0.259-2.080 0.811-3.038 1.676-2.903 5.399-3.894 8.325-2.219l3.145-5.447c-0.899-0.515-1.678-1.266-2.232-2.226zM16 22.479c-3.578 0-6.479-2.901-6.479-6.479s2.901-6.479 6.479-6.479c3.578 0 6.479 2.901 6.479 6.479s-2.901 6.479-6.479 6.479z"></path>
</symbol>
<symbol id="icon-cancel-circle" viewBox="0 0 32 32">
<path d="M16 0c-8.837 0-16 7.163-16 16s7.163 16 16 16 16-7.163 16-16-7.163-16-16-16zM16 29c-7.18 0-13-5.82-13-13s5.82-13 13-13 13 5.82 13 13-5.82 13-13 13z"></path>
<path d="M21 8l-5 5-5-5-3 3 5 5-5 5 3 3 5-5 5 5 3-3-5-5 5-5z"></path>
</symbol>
<symbol id="icon-checkbox-checked" viewBox="0 0 32 32">
<path d="M28 0h-24c-2.2 0-4 1.8-4 4v24c0 2.2 1.8 4 4 4h24c2.2 0 4-1.8 4-4v-24c0-2.2-1.8-4-4-4zM14 24.828l-7.414-7.414 2.828-2.828 4.586 4.586 9.586-9.586 2.828 2.828-12.414 12.414z"></path>
</symbol>
</defs>
</svg>
